<svg xmlns="http://www.w3.org/2000/svg" width="24" height="24" viewBox="0 0 24 24" fill="currentColor">
  <path d="M12 .5a12 12 0 0 0-3.79 23.4c.6.11.82-.26.82-.58v-2.02c-3.34.73-4.04-1.41-4.04-1.41-.55-1.4-1.35-1.77-1.35-1.77-1.1-.75.08-.74.08-.74 1.22.09 1.87 1.26 1.87 1.26 1.08 1.86 2.84 1.32 3.53 1.01.11-.8.42-1.33.76-1.64-2.66-.3-5.46-1.33-5.46-5.93 0-1.31.47-2.38 1.24-3.22-.13-.3-.54-1.52.12-3.17 0 0 1.01-.32 3.3 1.23a11.5 11.5 0 0 1 6 0c2.29-1.55 3.3-1.23 3.3-1.23.66 1.65.25 2.87.12 3.17.77.84 1.24 1.91 1.24 3.22 0 4.61-2.8 5.62-5.47 5.92.43.37.81 1.1.81 2.22v3.29c0 .32.21.7.82.58A12 12 0 0 0 12 .5z"/>
</svg>

