<svg xmlns="http://www.w3.org/2000/svg" width="24" height="24" viewBox="0 0 24 24" fill="currentColor">
  <path d="M20.447 20.452H17.24v-5.569c0-1.328-.027-3.037-1.852-3.037-1.853 0-2.136 1.447-2.136 2.942v5.664H10.04V9h3.073v1.561h.043c.428-.81 1.474-1.665 3.034-1.665 3.245 0 3.843 2.137 3.843 4.917v6.639zM5.337 7.433a1.781 1.781 0 1 1 0-3.562 1.781 1.781 0 0 1 0 3.562zM6.92 20.452H3.75V9h3.17v11.452zM22.225 0H1.771C.792 0 0 .774 0 1.729v20.542C0 23.226.792 24 1.771 24h20.451C23.2 24 24 23.226 24 22.271V1.729C24 .774 23.2 0 22.225 0z"/>
</svg>

